<?xml version="1.0" encoding="UTF-8"?><svg id="a" xmlns="http://www.w3.org/2000/svg" viewBox="0 0 141.73 141.73"><defs><style>.b{fill:#3aae6d;}.c{fill:#d69570;opacity:.72;}.d{fill:#e4996d;}.e{fill:#e5d4b4;}.f{fill:#fff1d0;}.g{fill:#2d9b58;opacity:.76;}.h{fill:#d38259;opacity:.82;}.i{fill:#d97d40;}.j{fill:#eaaa83;}.k{fill:#c66834;opacity:.81;}.l{fill:#ead7b0;opacity:.79;}</style></defs><g><g><path class="d" d="M90.28,20.69c0,4.38,2.47,8.17,6.1,10.06-.38-1.11-.57-2.3-.57-3.53,0-6.27,5.08-11.33,11.34-11.33,1.89,0,3.66,.45,5.23,1.28-1.47-4.53-5.74-7.81-10.76-7.81-6.27,0-11.34,5.08-11.34,11.33Z"/><path class="f" d="M107.16,15.89c1.89,0,3.66,.45,5.23,1.28,.09,.28,.17,.57,.25,.85,.21,.85,.32,1.74,.32,2.66,0,6.27-5.08,11.34-11.33,11.34-1.89,0-3.68-.45-5.25-1.28-.15-.47-.28-.96-.38-1.45-.13-.68-.19-1.38-.19-2.08,0-6.27,5.08-11.33,11.34-11.33Z"/></g><path class="l" d="M95.91,29.3c.09,.49,.23,.98,.38,1.45,1.57,.83,3.36,1.28,5.25,1.28,6.25,0,11.33-5.08,11.33-11.34,0-.92-.11-1.81-.32-2.66,.02,.3,.04,.59,.04,.89,0,6.17-5.45,11.17-12.16,11.17-1.59,0-3.11-.28-4.51-.79Z"/></g><g><g><path class="d" d="M49.85,20.69c0,4.38-2.47,8.17-6.1,10.06,.38-1.11,.57-2.3,.57-3.53,0-6.27-5.08-11.33-11.34-11.33-1.89,0-3.66,.45-5.23,1.28,1.47-4.53,5.74-7.81,10.76-7.81,6.27,0,11.34,5.08,11.34,11.33Z"/><path class="f" d="M32.98,15.89c-1.89,0-3.66,.45-5.23,1.28-.09,.28-.17,.57-.25,.85-.21,.85-.32,1.74-.32,2.66,0,6.27,5.08,11.34,11.33,11.34,1.89,0,3.68-.45,5.25-1.28,.15-.47,.28-.96,.38-1.45,.13-.68,.19-1.38,.19-2.08,0-6.27-5.08-11.33-11.34-11.33Z"/></g><path class="l" d="M44.23,29.3c-.09,.49-.23,.98-.38,1.45-1.57,.83-3.36,1.28-5.25,1.28-6.25,0-11.33-5.08-11.33-11.34,0-.92,.11-1.81,.32-2.66-.02,.3-.04,.59-.04,.89,0,6.17,5.45,11.17,12.16,11.17,1.59,0,3.11-.28,4.51-.79Z"/></g><path class="d" d="M52.93,68.43c-3.15-2.45-7.89-2.25-13.02,.09-5.06,2.28-10.49,6.64-15.1,12.55-9.27,11.87-11.72,21.69-5.47,26.58,2.47,1.93,5.95,2.81,9.8,2.42h.02c5.89-.59,12.7-4.11,18.33-11.29,9.27-11.87,11.72-25.46,5.46-30.35Z"/><path class="d" d="M97.67,98.77c9.28,11.88,21.87,13.76,28.13,8.88,6.26-4.89,3.81-14.7-5.47-26.58s-21.87-17.54-28.13-12.65-3.81,18.48,5.47,30.35Z"/><path class="j" d="M73.88,66.9c-.92-.08-1.89-.09-2.83-.09-21.67,0-39.22,14.23-39.22,31.81s17.55,31.82,39.22,31.82c.94,0,1.91-.02,2.83-.09,20.33-1.17,36.39-14.93,36.39-31.73s-16.06-30.54-36.39-31.71Z"/><circle class="d" cx="91.15" cy="117.19" r="16.19"/><path class="f" d="M96.88,111.45c-3.74-1.99-5.72,2.11-5.73,2.13,0-.01-1.99-4.12-5.73-2.13-6.78,4.52,5.7,12,5.73,12.02h0s12.51-7.5,5.73-12.02Z"/><path class="c" d="M73.88,130.34c-.92,.08-1.89,.09-2.83,.09-21.67,0-39.22-14.25-39.22-31.82s17.55-31.81,39.22-31.81c.94,0,1.91,.02,2.83,.09-20.35,1.17-36.39,14.91-36.39,31.71s16.04,30.56,36.39,31.73Z"/><path class="j" d="M73.87,13.95c-.92-.06-1.87-.08-2.83-.08-23.14,0-41.9,14.5-41.9,32.39s18.76,32.41,41.9,32.41c.96,0,1.91-.02,2.83-.08,21.82-1.13,39.07-15.16,39.07-32.33S95.69,15.08,73.87,13.95Z"/><path class="f" d="M72.88,42.36c-.6-.08-1.21-.09-1.83-.09-8.63,0-15.59,5.27-15.59,11.78s6.97,11.8,15.59,11.8c.62,0,1.23-.02,1.83-.09,7.74-.68,13.76-5.66,13.76-11.7s-6.02-11.02-13.76-11.68Z"/><path class="l" d="M72.88,65.75c-.6,.08-1.21,.09-1.83,.09-8.63,0-15.59-5.29-15.59-11.8s6.97-11.78,15.59-11.78c.62,0,1.23,.02,1.83,.09-7.76,.66-13.78,5.64-13.78,11.68s6.02,11.04,13.78,11.7Z"/><path class="i" d="M71.9,38.62c-.28-.06-.57-.08-.85-.08-3.1,0-5.61,2.51-5.61,5.59s2.51,5.61,5.61,5.61c.28,0,.57-.02,.85-.08,2.7-.4,4.74-2.72,4.74-5.53s-2.04-5.12-4.74-5.51Z"/><path class="c" d="M73.87,78.6c-.92,.06-1.87,.08-2.83,.08-23.14,0-41.9-14.5-41.9-32.41S47.9,13.87,71.04,13.87c.96,0,1.91,.02,2.83,.08-21.82,1.13-39.07,15.16-39.07,32.32s17.25,31.2,39.07,32.33Z"/><path class="d" d="M53.23,99.72c-.51-.06-1.04-.08-1.57-.08-8.95,0-16.2,7.27-16.2,16.2s7.25,16.2,16.2,16.2c.53,0,1.06-.02,1.57-.08,8.21-.79,14.63-7.7,14.63-16.12s-6.42-15.33-14.63-16.12Z"/><path class="f" d="M57.46,111.44c-.55-.28-1.06-.45-1.53-.51-1.85-.25-3.11,1.04-3.74,1.91-.3,.42-.45,.74-.45,.74-.02-.02-1.15-2.36-3.3-2.64-.72-.09-1.51,.02-2.43,.51-6.29,4.19,3.96,10.91,5.53,11.91,.13,.08,.21,.11,.21,.11,.02-.02,7.74-4.64,7.74-8.81,0-1.13-.57-2.25-2.02-3.21Z"/><g><path class="b" d="M69.07,77.09l-19.33-9.85-.92-.47c-1.15-.6-2.53,.25-2.53,1.55v20.25c0,1.28,1.34,2.11,2.51,1.55l.96-.47,19.27-9.44c1.3-.62,1.3-2.45,.04-3.11Z"/><path class="b" d="M95.81,88.55v-20.25c0-1.3-1.37-2.14-2.53-1.55l-20.25,10.34c-1.28,.65-1.26,2.48,.03,3.11l20.25,9.91c1.16,.57,2.5-.28,2.5-1.56Z"/><path class="b" d="M71.49,75.12c-.19-.06-.4-.08-.6-.08-1.87,0-3.38,1.51-3.38,3.38s1.51,3.38,3.38,3.38c.21,0,.42-.02,.6-.06,1.59-.28,2.77-1.66,2.77-3.32s-1.19-3.04-2.77-3.3Z"/><path class="g" d="M49.76,89.64l-.96,.47c-1.17,.57-2.51-.26-2.51-1.55v-20.25c0-1.3,1.38-2.15,2.53-1.55l.92,.47c-.25,.28-.38,.66-.38,1.08v20.25c0,.42,.15,.79,.4,1.08Z"/><path class="g" d="M71.49,81.75c-.19,.04-.4,.06-.6,.06-1.87,0-3.38-1.51-3.38-3.38s1.51-3.38,3.38-3.38c.21,0,.42,.02,.6,.08-1.59,.25-2.79,1.64-2.79,3.3s1.21,3.06,2.79,3.32Z"/></g><path class="h" d="M53.19,131.96c-.51,.06-1.04,.08-1.57,.08-8.95,0-16.2-7.25-16.2-16.2s7.25-16.2,16.2-16.2c.53,0,1.06,.02,1.57,.08-8.21,.79-14.63,7.72-14.63,16.12s6.42,15.33,14.63,16.12Z"/><path class="h" d="M92.82,133.31c-.51,.06-1.04,.08-1.57,.08-8.95,0-16.2-7.25-16.2-16.2s7.25-16.2,16.2-16.2c.53,0,1.06,.02,1.57,.08-8.21,.79-14.63,7.72-14.63,16.12s6.42,15.33,14.63,16.12Z"/><path class="k" d="M71.9,49.66c-.28,.06-.57,.08-.85,.08-3.1,0-5.61-2.51-5.61-5.61s2.51-5.59,5.61-5.59c.28,0,.57,.02,.85,.08-2.7,.4-4.78,2.72-4.78,5.51s2.08,5.13,4.78,5.53Z"/><path class="h" d="M28.84,79.08c-9.95,12.72-12.57,23.24-5.87,28.48,1.68,1.32,3.78,2.17,6.15,2.51-3.85,.4-7.32-.49-9.8-2.42-6.25-4.89-3.79-14.7,5.47-26.58,4.61-5.91,10.04-10.27,15.1-12.55-3.81,2.6-7.64,6.19-11.06,10.55Z"/><path class="e" d="M51.53,123.35c-1.57-1-11.82-7.72-5.53-11.91,.92-.49,1.72-.6,2.43-.51-.47,.06-.98,.23-1.53,.51-6.27,4.19,3.13,10.87,4.62,11.91Z"/><path class="e" d="M90.95,123.35c-1.57-1-11.82-7.72-5.53-11.91,.92-.49,1.72-.6,2.43-.51-.47,.06-.98,.23-1.53,.51-6.27,4.19,3.13,10.87,4.62,11.91Z"/></svg>