<?xml version="1.0" encoding="UTF-8"?><svg id="a" xmlns="http://www.w3.org/2000/svg" viewBox="0 0 141.73 141.73"><defs><style>.b{fill:#3aae6d;}.c{fill:#f7f0eb;}.d{fill:#fff;}.e{fill:#fff2b4;}.f{fill:#078f50;opacity:.67;}.g{fill:#ebd992;opacity:.77;}.h{fill:#d84878;opacity:.63;}.i{fill:#ee7699;}.j{fill:#e5c7b3;opacity:.49;}.k{fill:none;stroke:#f3a2b3;stroke-linecap:round;stroke-miterlimit:10;stroke-width:4px;}.l{fill:#f2e3a2;opacity:.89;}</style></defs><g><g><path class="e" d="M82.01,37.8c-4.96-4.14-11.23-9.16-14.39-15.81-1.35-2.85-.76-7.89-1.5-10.19-.28-.89-1.02-1.52-1.95-1.91-2.08-.86-5.18-.47-5.74,1.54-1.17,4.14-1.58,6.7-2.16,8.56-2.07,6.66-2.2,3.94-15.92,17.66-1.58,2.38,.58,5.3,3.88,5.3h33.81c3.22,0,5.39-2.77,3.98-5.15Z"/><path class="l" d="M63.69,9.72c-.71,.32-1.98,1.86-2.22,2.57-.89,2.58-.55,5.69-2.29,8.74-2.86,5.01-7.55,9.59-14.59,16.62-1.58,2.38,.58,5.3,3.88,5.3h-4.26c-3.31,0-5.46-2.92-3.88-5.3,7.05-7.05,12.37-11.18,15.23-16.2,1.73-3.04,1.96-7.46,2.85-10.03,.69-1.97,3.05-2.37,5.27-1.71Z"/></g><path class="b" d="M83.1,41.43H39.14c-2.19,0-4.16,.89-5.61,2.32-1.43,1.45-2.32,3.44-2.32,5.61,0,4.37,3.57,7.94,7.94,7.94h43.96c2.17,0,4.18-.89,5.61-2.32s2.34-3.44,2.34-5.61c0-4.37-3.59-7.94-7.95-7.94Z"/><path class="f" d="M41.91,57.31h-2.77c-4.37,0-7.94-3.57-7.94-7.94,0-2.17,.89-4.16,2.32-5.61,1.45-1.43,3.42-2.32,5.61-2.32h2.77c-2.17,0-4.16,.89-5.61,2.32-1.43,1.45-2.32,3.44-2.32,5.61,0,4.37,3.57,7.94,7.94,7.94Z"/><path class="c" d="M92.67,91.69c0-5.52,3.72-16.25,4.46-21.75,1.05-7.77-6.41-14.26-14.26-14.26H47.34c-.49,0-.97,.03-1.45,.07,.48-.05,.96-.07,1.45-.07h-7.97c-7.84,0-15.19,6.47-14.24,14.26,.68,5.5,4.13,16.52,4.29,21.75,.19,6.25-3.52,16.27-4.29,21.76-1.1,7.75,6.39,14.24,14.24,14.24h43.51c7.84,0,15.3-6.48,14.26-14.24-.74-5.5-4.46-16.24-4.46-21.76Z"/><path class="j" d="M47.34,127.69h-7.97c-7.84,0-15.33-6.49-14.24-14.24,.78-5.49,4.48-15.52,4.29-21.76-.17-5.22-3.62-16.25-4.29-21.75-.96-7.78,6.39-14.26,14.24-14.26h7.97c-7.82,0-14.24,6.41-14.24,14.26,0,0,4.14,16.52,4.29,21.75,.19,6.25-4.29,21.76-4.29,21.76,0,7.82,6.41,14.24,14.24,14.24Z"/></g><g><g><path class="i" d="M94.54,87.23c-.59-.07-1.19-.09-1.8-.09-11.19,0-20.28,9.09-20.28,20.28s9.09,20.28,20.28,20.28c.61,0,1.21-.02,1.8-.09,10.37-.89,18.49-9.59,18.49-20.18s-8.12-19.29-18.49-20.18Z"/><path class="h" d="M94.54,127.6c-.59,.07-1.19,.09-1.8,.09-11.19,0-20.28-9.07-20.28-20.28s9.09-20.28,20.28-20.28c.61,0,1.21,.02,1.8,.09-10.35,.89-18.49,9.59-18.49,20.18s8.14,19.29,18.49,20.18Z"/><circle class="d" cx="92.74" cy="107.42" r="13.34"/></g><g><path class="e" d="M120.07,60.49c-2.36-1.36-5.13-1.52-7.77-.67-3.05,.97-5.93,3.25-7.82,6.56-2.19,3.79-2.58,8.03-1.38,11.43l-4.46,7.73,10.46,6.04,1.04-1.78,3.42-5.95c.72-.13,1.43-.33,2.14-.63,.54-.2,1.06-.45,1.56-.74,.02,0,.04,0,.06-.02,2.14-1.21,4.07-3.09,5.46-5.52,3.57-6.17,2.36-13.53-2.71-16.45Z"/><path class="g" d="M101,84.52l9.14,5.28-1.04,1.78-10.46-6.04,4.46-7.73c-1.21-3.4-.82-7.64,1.38-11.43,1.9-3.31,4.78-5.59,7.82-6.56-2.14,1.21-4.05,3.1-5.46,5.52-2.17,3.79-2.56,8.05-1.36,11.43l-4.48,7.75Z"/></g><line class="k" x1="87.79" y1="81.01" x2="118.45" y2="98.71"/></g></svg>