<?xml version="1.0" encoding="UTF-8"?><svg id="a" xmlns="http://www.w3.org/2000/svg" xmlns:xlink="http://www.w3.org/1999/xlink" viewBox="0 0 141.73 141.73"><defs><style>.d{fill:#3aae6d;}.e{fill:#e7dfcd;}.f{fill:#b2b2b2;}.g{fill:#fff9e7;}.h{filter:url(#b);}.i{fill:#eb5c71;}.j{fill:#7a6d79;}.k{fill:#f09836;}.l{fill:#efe2b0;}</style><filter id="b" filterUnits="userSpaceOnUse"><feOffset dx="2" dy="1"/><feGaussianBlur result="c" stdDeviation="1"/><feFlood flood-color="#878583" flood-opacity=".86"/><feComposite in2="c" operator="in"/><feComposite in="SourceGraphic"/></filter></defs><path class="g" d="M111.25,110.65H38.12c-9.78,0-17.79-8.01-17.79-17.79V46.14c.15-9.81,8.05-17.82,17.79-17.79H111.25c9.78,0,17.79,8.01,17.79,17.79v46.71c0,9.78-8.01,17.79-17.79,17.79Z"/><path class="i" d="M20.23,50.17c0-9.78,4.44-22.24,17.79-22.24H111.16c12.27,0,19.21,11.12,17.79,22.24H20.23Z"/><rect class="j" x="40.93" y="18.47" width="11.3" height="17.21" rx="3.1" ry="3.1"/><rect class="j" x="95.86" y="18.47" width="11.3" height="17.21" rx="3.1" ry="3.1"/><g><rect class="d" x="85.68" y="54.88" width="8.38" height="8.38" rx="1" ry="1"/><rect class="d" x="103.32" y="54.88" width="8.38" height="8.38" rx="1" ry="1"/><rect class="d" x="85.68" y="71.4" width="8.38" height="8.38" rx="1" ry="1"/><rect class="d" x="103.32" y="71.4" width="8.38" height="8.38" rx="1" ry="1"/><rect class="d" x="85.68" y="87.93" width="8.38" height="8.38" rx="1" ry="1"/><rect class="d" x="103.32" y="87.93" width="8.38" height="8.38" rx="1" ry="1"/></g><g class="h"><path class="l" d="M17.14,49.45l-2.95,2.95c-2.2,2.2-1.97,5.99,.51,8.47l37.19,37.19c.88,.88,2.01,1.46,3.19,1.63l10.22,1.5c2.18,.32,3.89-1.39,3.57-3.57l-1.5-10.22c-.17-1.18-.75-2.31-1.63-3.19L28.55,47.01c-2.48-2.48-6.27-2.71-8.47-.51l-2.95,2.95Z"/><path class="d" d="M14.68,60.84l37.19,37.19c.88,.88,1.77,1.32,2.32,1.39,4-2.25,10.51-9.07,12.96-12.96-.2-.71-.54-1.39-1.43-2.28L28.53,46.99l-13.85,13.85Z"/><path d="M60.01,100.33l5.35,.79c2.18,.32,3.89-1.39,3.57-3.57l-.74-5.06-8.18,7.84Z"/><path class="k" d="M17.06,49.52l-2.95,2.95c-2.2,2.2-1.97,5.99,.51,8.47l3.94,3.89,13.9-13.9-3.77-3.82c-2.58-2.78-6.52-2.78-8.68-.52l-2.95,2.95Z"/><rect class="f" x="17.23" y="57.23" width="19.66" height="4.38" transform="translate(-34.09 36.54) rotate(-45)"/></g><path class="e" d="M129.05,91.82c-4.44,7.45-7,3.36-14.8,4.86-5.35,1.03-1.52,9.88-8.93,13.97,6.92,0,11.28,.87,17.76-2.94,6.64-3.91,5.98-11.68,5.98-15.88Z"/></svg>