<?xml version="1.0" encoding="UTF-8"?><svg id="a" xmlns="http://www.w3.org/2000/svg" viewBox="0 0 141.73 141.73"><defs><style>.b{fill:#3aae6d;}.c{fill:#84c48e;}.d{fill:#67b275;opacity:.81;}.e{fill:#e0dcdc;}.f{stroke:#f39200;}.f,.g,.h,.i{fill:none;}.f,.g,.i{stroke-linecap:square;stroke-linejoin:round;stroke-width:1.5px;}.j{fill:#319b5c;opacity:.86;}.k{fill:#d38259;}.g{stroke:#e73258;}.h{stroke:#2e9b5b;stroke-linecap:round;stroke-miterlimit:10;stroke-width:2px;}.l{fill:#79c089;}.i{stroke:#40b4e2;}</style></defs><g><rect class="b" x="21.78" y="47.11" width="101.02" height="46.5" rx="12" ry="12"/><g><line class="h" x1="42.87" y1="59.74" x2="42.87" y2="64.17"/><line class="h" x1="40.66" y1="61.96" x2="45.09" y2="61.96"/></g><g><line class="h" x1="60.64" y1="59.74" x2="60.64" y2="64.17"/><line class="h" x1="58.43" y1="61.96" x2="62.86" y2="61.96"/></g><g><line class="h" x1="80.65" y1="59.74" x2="80.65" y2="64.17"/><line class="h" x1="78.44" y1="61.96" x2="82.87" y2="61.96"/></g><g><line class="h" x1="98.42" y1="59.74" x2="98.42" y2="64.17"/><line class="h" x1="96.21" y1="61.96" x2="100.64" y2="61.96"/></g></g><rect class="k" x="29.25" y="98.63" width="87.19" height="3.29" rx="1.64" ry="1.64"/><rect class="k" x="26.03" y="95.52" width="6.57" height="17.25" rx="2.67" ry="2.67" transform="translate(11.87 210.92) rotate(-155)"/><rect class="k" x="114.66" y="95.52" width="6.57" height="17.25" rx="2.67" ry="2.67" transform="translate(-32.96 59.6) rotate(-25)"/><path class="c" d="M58.43,83.59c0,4.21-7.31,5.64-16.32,5.64s-16.32-1.43-16.32-5.64,6.86-8.22,16.32-8.28c9.54-.06,16.32,4.07,16.32,8.28Z"/><path class="c" d="M88.62,83.59c0,4.21-7.31,5.64-16.32,5.64s-16.32-1.43-16.32-5.64,6.86-8.22,16.32-8.28c9.54-.06,16.32,4.07,16.32,8.28Z"/><path class="c" d="M119.26,83.29c0,4.21-7.31,5.64-16.32,5.64s-16.32-1.43-16.32-5.64,6.86-8.22,16.32-8.28c9.54-.06,16.32,4.07,16.32,8.28Z"/><g><path class="e" d="M51.89,69.07h-11.91c-1.09,0-1.98-.89-1.98-1.98h0c0-1.09,.89-1.98,1.98-1.98h11.91v3.96Z"/><path class="f" d="M51.82,65.11h-11.46s-2.42,.11-2.61,2.23,2.61,2.3,2.61,2.3h11.46"/></g><g><path class="e" d="M55.43,76.36h-15.61c-1.43,0-2.59-1.17-2.59-2.59h0c0-1.43,1.17-2.59,2.59-2.59h15.61v5.19Z"/><path class="g" d="M55.49,71.17h-16.21s-2.42,.11-2.61,2.23,1.55,3.24,2.61,3.49c3.99,.38,16.21,0,16.21,0"/></g><g><path class="e" d="M55.49,84.17h-15.61c-1.43,0-2.59-1.17-2.59-2.59h0c0-1.43,1.17-2.59,2.59-2.59h15.61v5.19Z"/><path class="i" d="M55.8,78.63h-16.21s-2.42,.11-2.61,2.23,1.55,3.24,2.61,3.49c4.08,.16,16.21,0,16.21,0"/></g><path class="j" d="M38.56,47.11c-.69,.15-1.37,.36-2.02,.63-4.02,1.63-7.06,5.35-7.59,9.93l-2.97,25.8c-.25,2.11,.07,4.15,.81,6,.1,.23,.2,.47,.31,.69-3.25-2.72-5.32-6.8-5.32-11.33v-16.93c0-8.13,6.65-14.78,14.78-14.78h2Z"/><path class="l" d="M130.11,65.32c-1.2-.3-2.72-.23-4.66,.36-4.53,2.81-2.48,13.34-9.72,17.3-7.66,.99-22.96,1.4-38.79,1.43-20.57,.04-42.05-.58-48.79-1.43-3.71-2.8-4.11-14.44-7.91-17.3-.09-.01-.17-.04-.25-.04-6.52-1.08-8.61,3.93-8.29,8.57,.8,12.04,9.98,26.07,14.7,26.07H119.29c4.71,0,13.4-14.03,14.7-26.07,.37-3.54-.17-7.98-3.88-8.89Z"/><path class="d" d="M29.58,100.28h-3.18c-4.72,0-13.9-14.03-14.7-26.07-.32-4.64,1.77-9.66,8.29-8.57-4.03,.76-5.36,4.79-5.11,8.57,.8,12.04,9.98,26.07,14.7,26.07Z"/></svg>