<?xml version="1.0" encoding="UTF-8"?><svg id="a" xmlns="http://www.w3.org/2000/svg" viewBox="0 0 141.73 141.73"><defs><style>.b{opacity:.72;}.c{fill:#3aae6d;}.d{fill:#d68a2f;}.e{fill:#fbec7f;}.f{stroke-miterlimit:10;}.f,.g{fill:none;stroke:#ceb0a3;stroke-linecap:round;stroke-width:4px;}.h{fill:#2d9658;opacity:.83;}.i{fill:#f59f2d;}.g{stroke-linejoin:round;}</style></defs><g><g><path class="i" d="M109.49,45.72l4.8-5.65c.4-.48,.52-1.13,.31-1.72l-1.3-3.64c-.13-.36-.14-.76-.02-1.13l1.19-3.68c.19-.59,.05-1.24-.36-1.71l-4.97-5.51c-.15-.17-.27-.37-.35-.58l-2.5-6.98c-.21-.59-.72-1.02-1.33-1.13l-3.8-.69c-.38-.07-.73-.26-.98-.55l-2.59-2.87c-.42-.46-1.05-.67-1.66-.54l-7.25,1.55c-.22,.05-.45,.05-.68,.01l-7.3-1.33c-.61-.11-1.24,.11-1.64,.59l-2.5,2.95c-.25,.29-.59,.5-.97,.58l-3.78,.81c-.61,.13-1.1,.58-1.3,1.17l-2.29,7.06c-.07,.22-.18,.42-.33,.59l-4.8,5.65c-.4,.48-.52,1.13-.31,1.72l1.3,3.64c.13,.36,.14,.76,.02,1.13l-1.19,3.68c-.19,.59-.05,1.24,.36,1.71l4.97,5.51c.15,.17,.27,.37,.35,.58l2.5,6.98c.21,.59,.72,1.02,1.33,1.13l3.8,.69c.38,.07,.73,.26,.98,.55l2.59,2.87c.42,.46,1.05,.67,1.66,.54l7.25-1.55c.22-.05,.45-.05,.68-.01l7.3,1.33c.61,.11,1.24-.11,1.64-.59l2.5-2.95c.25-.29,.59-.5,.97-.58l3.78-.81c.61-.13,1.1-.58,1.3-1.17l2.29-7.06c.07-.22,.18-.42,.33-.59Z"/><circle class="e" cx="88.69" cy="34.52" r="19.13"/></g><g class="b"><path class="d" d="M89.38,58.07c-.23-.04-.45-.04-.68,.01l-7.25,1.55c-.61,.12-1.24-.07-1.66-.55l-2.59-2.86c-.26-.29-.61-.49-.98-.56l-3.81-.69c-.62-.1-1.12-.53-1.34-1.11l-2.49-7c-.07-.21-.19-.39-.35-.58l-4.96-5.49c-.42-.48-.56-1.12-.37-1.71l1.19-3.7c.12-.35,.11-.75-.01-1.12l-1.31-3.63c-.2-.58-.08-1.24,.32-1.72l4.8-5.66c.14-.18,.26-.37,.33-.58l2.28-7.08c.19-.58,.69-1.04,1.3-1.17l3.78-.79c.37-.08,.72-.29,.97-.58l2.51-2.96c.39-.47,1.03-.68,1.63-.57l7.3,1.31c.23,.06,.45,.06,.68,0l7.25-1.55c.61-.12,1.24,.07,1.66,.55l1.13,1.24c-.99-.17-2-.26-3.03-.26-4.84,0-9.26,2.03-12.59,5.33-3.71,3.71-6.04,9.07-6.04,15.01,0,11.23,12.31,26.92,12.31,26.92Z"/></g></g><g><g><circle class="c" cx="62.69" cy="43.03" r="17.53"/><circle class="c" cx="52.11" cy="61.4" r="17.53"/><circle class="c" cx="74.93" cy="59.73" r="17.53"/><circle class="c" cx="80.22" cy="82.82" r="20.87"/><circle class="c" cx="49.22" cy="82.82" r="20.87"/></g><line class="f" x1="62.69" y1="68.02" x2="62.69" y2="127.56"/><polyline class="g" points="51.87 75.32 61.21 89.23 81.2 68.62"/></g><path class="h" d="M58.82,101.35c-2.87,1.5-6.14,2.34-9.6,2.34-11.53,0-20.87-9.35-20.87-20.87,0-6.29,2.78-11.94,7.19-15.75-.61-1.78-.94-3.7-.94-5.68,0-7.26,4.42-13.5,10.71-16.14-.1-.73-.14-1.47-.14-2.23,0-9.67,7.85-17.52,17.52-17.52,7.05,0,13.13,4.15,15.91,10.16-7.98,.78-15.21,4.09-20.89,9.12-3.21,2.84-5.94,6.22-8,10.02-1.26,2.3-2.28,4.74-3.02,7.3-.98,3.32-1.51,6.85-1.51,10.49,0,1.71,.11,3.4,.36,5.05,1.28,9.53,6.19,17.91,13.3,23.71Z"/></svg>